<?xml version="1.0" encoding="UTF-8"?>
<svg xmlns="http://www.w3.org/2000/svg" width="256" height="256" viewBox="0 0 67.733 67.733">
  <defs>
    <clipPath id="g" />
    <clipPath id="h" />
    <filter id="i" x="-.776" y="-.618" width="2.553" height="2.236" color-interpolation-filters="sRGB">
      <feGaussianBlur stdDeviation="6" in="SourceGraphic" result="result0" />
      <feDiffuseLighting lighting-color="#fff" surfaceScale="4" result="result5">
        <feDistantLight elevation="45" azimuth="235" />
      </feDiffuseLighting>
      <feComposite k1="1.4" in2="SourceGraphic" in="result5" result="fbSourceGraphic" operator="arithmetic" />
      <feGaussianBlur result="result0" in="fbSourceGraphic" stdDeviation="6" />
      <feSpecularLighting specularExponent="25" surfaceScale="4" lighting-color="#fff" result="result1" in="result0">
        <feDistantLight azimuth="235" elevation="45" />
      </feSpecularLighting>
      <feComposite k3="1" k2="1" operator="arithmetic" in="fbSourceGraphic" in2="result1" result="result4" />
      <feComposite operator="in" result="result2" in2="SourceGraphic" in="result4" />
    </filter>
    <filter id="j" x="-.653" y="-.316" width="2.306" height="1.632" color-interpolation-filters="sRGB">
      <feGaussianBlur stdDeviation="6" in="SourceGraphic" result="result0" />
      <feDiffuseLighting lighting-color="#fff" surfaceScale="4" result="result5">
        <feDistantLight elevation="45" azimuth="235" />
      </feDiffuseLighting>
      <feComposite k1="1.4" in2="SourceGraphic" in="result5" result="fbSourceGraphic" operator="arithmetic" />
      <feGaussianBlur result="result0" in="fbSourceGraphic" stdDeviation="6" />
      <feSpecularLighting specularExponent="25" surfaceScale="4" lighting-color="#fff" result="result1" in="result0">
        <feDistantLight azimuth="235" elevation="45" />
      </feSpecularLighting>
      <feComposite k3="1" k2="1" operator="arithmetic" in="fbSourceGraphic" in2="result1" result="result4" />
      <feComposite operator="in" result="result2" in2="SourceGraphic" in="result4" />
    </filter>
    <filter id="k" x="-.754" y="-.324" width="2.509" height="1.648" color-interpolation-filters="sRGB">
      <feGaussianBlur stdDeviation="6" in="SourceGraphic" result="result0" />
      <feDiffuseLighting lighting-color="#fff" surfaceScale="4" result="result5">
        <feDistantLight elevation="45" azimuth="235" />
      </feDiffuseLighting>
      <feComposite k1="1.4" in2="SourceGraphic" in="result5" result="fbSourceGraphic" operator="arithmetic" />
      <feGaussianBlur result="result0" in="fbSourceGraphic" stdDeviation="6" />
      <feSpecularLighting specularExponent="25" surfaceScale="4" lighting-color="#fff" result="result1" in="result0">
        <feDistantLight azimuth="235" elevation="45" />
      </feSpecularLighting>
      <feComposite k3="1" k2="1" operator="arithmetic" in="fbSourceGraphic" in2="result1" result="result4" />
      <feComposite operator="in" result="result2" in2="SourceGraphic" in="result4" />
    </filter>
    <filter id="l" x="-1.054" y="-.977" width="3.109" height="2.953" color-interpolation-filters="sRGB">
      <feGaussianBlur stdDeviation="6" in="SourceGraphic" result="result0" />
      <feDiffuseLighting lighting-color="#fff" surfaceScale="4" result="result5">
        <feDistantLight elevation="45" azimuth="235" />
      </feDiffuseLighting>
      <feComposite k1="1.4" in2="SourceGraphic" in="result5" result="fbSourceGraphic" operator="arithmetic" />
      <feGaussianBlur result="result0" in="fbSourceGraphic" stdDeviation="6" />
      <feSpecularLighting specularExponent="25" surfaceScale="4" lighting-color="#fff" result="result1" in="result0">
        <feDistantLight azimuth="235" elevation="45" />
      </feSpecularLighting>
      <feComposite k3="1" k2="1" operator="arithmetic" in="fbSourceGraphic" in2="result1" result="result4" />
      <feComposite operator="in" result="result2" in2="SourceGraphic" in="result4" />
    </filter>
    <filter id="m" x="-1.522" y="-.455" width="4.043" height="1.91" color-interpolation-filters="sRGB">
      <feGaussianBlur stdDeviation="6" in="SourceGraphic" result="result0" />
      <feDiffuseLighting lighting-color="#fff" surfaceScale="4" result="result5">
        <feDistantLight elevation="45" azimuth="235" />
      </feDiffuseLighting>
      <feComposite k1="1.4" in2="SourceGraphic" in="result5" result="fbSourceGraphic" operator="arithmetic" />
      <feGaussianBlur result="result0" in="fbSourceGraphic" stdDeviation="6" />
      <feSpecularLighting specularExponent="25" surfaceScale="4" lighting-color="#fff" result="result1" in="result0">
        <feDistantLight azimuth="235" elevation="45" />
      </feSpecularLighting>
      <feComposite k3="1" k2="1" operator="arithmetic" in="fbSourceGraphic" in2="result1" result="result4" />
      <feComposite operator="in" result="result2" in2="SourceGraphic" in="result4" />
    </filter>
    <filter id="n" x="-1.331" y="-.785" width="3.662" height="2.571" color-interpolation-filters="sRGB">
      <feGaussianBlur stdDeviation="6" in="SourceGraphic" result="result0" />
      <feDiffuseLighting lighting-color="#fff" surfaceScale="4" result="result5">
        <feDistantLight elevation="45" azimuth="235" />
      </feDiffuseLighting>
      <feComposite k1="1.4" in2="SourceGraphic" in="result5" result="fbSourceGraphic" operator="arithmetic" />
      <feGaussianBlur result="result0" in="fbSourceGraphic" stdDeviation="6" />
      <feSpecularLighting specularExponent="25" surfaceScale="4" lighting-color="#fff" result="result1" in="result0">
        <feDistantLight azimuth="235" elevation="45" />
      </feSpecularLighting>
      <feComposite k3="1" k2="1" operator="arithmetic" in="fbSourceGraphic" in2="result1" result="result4" />
      <feComposite operator="in" result="result2" in2="SourceGraphic" in="result4" />
    </filter>
    <filter id="o" x="-.935" y="-.599" width="2.87" height="2.198" color-interpolation-filters="sRGB">
      <feGaussianBlur stdDeviation="6" in="SourceGraphic" result="result0" />
      <feDiffuseLighting lighting-color="#fff" surfaceScale="4" result="result5">
        <feDistantLight elevation="45" azimuth="235" />
      </feDiffuseLighting>
      <feComposite k1="1.4" in2="SourceGraphic" in="result5" result="fbSourceGraphic" operator="arithmetic" />
      <feGaussianBlur result="result0" in="fbSourceGraphic" stdDeviation="6" />
      <feSpecularLighting specularExponent="25" surfaceScale="4" lighting-color="#fff" result="result1" in="result0">
        <feDistantLight azimuth="235" elevation="45" />
      </feSpecularLighting>
      <feComposite k3="1" k2="1" operator="arithmetic" in="fbSourceGraphic" in2="result1" result="result4" />
      <feComposite operator="in" result="result2" in2="SourceGraphic" in="result4" />
    </filter>
    <filter id="f" x="-.196" y="-.188" width="1.393" height="1.376" color-interpolation-filters="sRGB">
      <feGaussianBlur stdDeviation="6" in="SourceGraphic" result="result0" />
      <feDiffuseLighting lighting-color="#fff" surfaceScale="4" result="result5">
        <feDistantLight elevation="45" azimuth="235" />
      </feDiffuseLighting>
      <feComposite k1="1.4" in2="SourceGraphic" in="result5" result="fbSourceGraphic" operator="arithmetic" />
      <feGaussianBlur result="result0" in="fbSourceGraphic" stdDeviation="6" />
      <feSpecularLighting specularExponent="25" surfaceScale="4" lighting-color="#fff" result="result1" in="result0">
        <feDistantLight azimuth="235" elevation="45" />
      </feSpecularLighting>
      <feComposite k3="1" k2="1" operator="arithmetic" in="fbSourceGraphic" in2="result1" result="result4" />
      <feComposite operator="in" result="result2" in2="SourceGraphic" in="result4" />
    </filter>
    <filter height="1.309" width="1.31" y="-.135" x="-.135" id="e" color-interpolation-filters="sRGB">
      <feOffset dx="7" dy="7" in="SourceAlpha" result="result3" />
      <feGaussianBlur stdDeviation="8" in="result3" result="result1" />
      <feComposite operator="in" in2="result1" in="SourceGraphic" result="result2" />
      <feComposite operator="out" result="fbSourceGraphic" in="result2" in2="result2" />
      <feColorMatrix result="fbSourceGraphicAlpha" in="fbSourceGraphic" values="0 0 0 -1 0 0 0 0 -1 0 0 0 0 1 0 0 0 0 4 0" />
      <feGaussianBlur result="result0" in="fbSourceGraphicAlpha" stdDeviation="2" />
      <feSpecularLighting specularExponent="20" specularConstant="1.2" surfaceScale="3" lighting-color="#fff" result="result1" in="result0">
        <feDistantLight azimuth="235" elevation="45" />
      </feSpecularLighting>
      <feComposite operator="in" result="result2" in="result1" in2="fbSourceGraphicAlpha" />
      <feComposite in="fbSourceGraphic" operator="arithmetic" k2="2" k3="2" in2="result2" result="result91" />
      <feBlend mode="multiply" in2="result91" />
    </filter>
    <clipPath id="c" />
    <filter id="d" x="-5.838" y="-3.13" width="12.676" height="7.261" color-interpolation-filters="sRGB">
      <feGaussianBlur stdDeviation="6" in="SourceGraphic" result="result0" />
      <feDiffuseLighting lighting-color="#fff" surfaceScale="4" result="result5">
        <feDistantLight elevation="45" azimuth="235" />
      </feDiffuseLighting>
      <feComposite k1="1.4" in2="SourceGraphic" in="result5" result="fbSourceGraphic" operator="arithmetic" />
      <feGaussianBlur result="result0" in="fbSourceGraphic" stdDeviation="6" />
      <feSpecularLighting specularExponent="25" surfaceScale="4" lighting-color="#fff" result="result1" in="result0">
        <feDistantLight azimuth="235" elevation="45" />
      </feSpecularLighting>
      <feComposite k3="1" k2="1" operator="arithmetic" in="fbSourceGraphic" in2="result1" result="result4" />
      <feComposite operator="in" result="fbSourceGraphic" in2="SourceGraphic" in="result4" />
      <feColorMatrix result="fbSourceGraphicAlpha" in="fbSourceGraphic" values="0 0 0 -1 0 0 0 0 -1 0 0 0 0 -1 0 0 0 0 1 0" />
      <feGaussianBlur stdDeviation="6" in="fbSourceGraphic" result="result0" />
      <feDiffuseLighting lighting-color="#fff" surfaceScale="4" result="result5">
        <feDistantLight elevation="45" azimuth="235" />
      </feDiffuseLighting>
      <feComposite in2="fbSourceGraphic" k1="1.4" in="result5" result="fbSourceGraphic" operator="arithmetic" />
      <feGaussianBlur result="result0" in="fbSourceGraphic" stdDeviation="6" />
      <feSpecularLighting specularExponent="25" surfaceScale="4" lighting-color="#fff" result="result1" in="result0">
        <feDistantLight azimuth="235" elevation="45" />
      </feSpecularLighting>
      <feComposite in2="result1" k3="1" k2="1" operator="arithmetic" in="fbSourceGraphic" result="result4" />
      <feComposite in2="fbSourceGraphic" operator="in" result="fbSourceGraphic" in="result4" />
      <feColorMatrix result="fbSourceGraphicAlpha" in="fbSourceGraphic" values="0 0 0 -1 0 0 0 0 -1 0 0 0 0 -1 0 0 0 0 1 0" />
      <feGaussianBlur stdDeviation="6" in="fbSourceGraphic" result="result0" />
      <feDiffuseLighting lighting-color="#FFF" surfaceScale="4" result="result5">
        <feDistantLight elevation="45" azimuth="235" />
      </feDiffuseLighting>
      <feComposite in2="fbSourceGraphic" k1="1.4" in="result5" result="fbSourceGraphic" operator="arithmetic" />
      <feGaussianBlur result="result0" in="fbSourceGraphic" stdDeviation="6" />
      <feSpecularLighting specularExponent="25" surfaceScale="4" lighting-color="#FFF" result="result1" in="result0">
        <feDistantLight azimuth="235" elevation="45" />
      </feSpecularLighting>
      <feComposite in2="result1" k3="1" k2="1" operator="arithmetic" in="fbSourceGraphic" result="result4" />
      <feComposite in2="fbSourceGraphic" operator="in" result="result2" in="result4" />
    </filter>
    <filter id="b" x="-.164" y="-.701" width="1.329" height="2.401" color-interpolation-filters="sRGB">
      <feGaussianBlur stdDeviation="6" in="SourceGraphic" result="result0" />
      <feDiffuseLighting lighting-color="#fff" surfaceScale="4" result="result5">
        <feDistantLight elevation="45" azimuth="235" />
      </feDiffuseLighting>
      <feComposite k1="1.4" in2="SourceGraphic" in="result5" result="fbSourceGraphic" operator="arithmetic" />
      <feGaussianBlur result="result0" in="fbSourceGraphic" stdDeviation="6" />
      <feSpecularLighting specularExponent="25" surfaceScale="4" lighting-color="#fff" result="result1" in="result0">
        <feDistantLight azimuth="235" elevation="45" />
      </feSpecularLighting>
      <feComposite k3="1" k2="1" operator="arithmetic" in="fbSourceGraphic" in2="result1" result="result4" />
      <feComposite operator="in" result="result2" in2="SourceGraphic" in="result4" />
    </filter>
    <filter id="a" x="-.163" y="-.216" width="1.326" height="1.432" color-interpolation-filters="sRGB">
      <feGaussianBlur stdDeviation="6" in="SourceGraphic" result="result0" />
      <feDiffuseLighting lighting-color="#fff" surfaceScale="4" result="result5">
        <feDistantLight elevation="45" azimuth="235" />
      </feDiffuseLighting>
      <feComposite k1="1.4" in2="SourceGraphic" in="result5" result="fbSourceGraphic" operator="arithmetic" />
      <feGaussianBlur result="result0" in="fbSourceGraphic" stdDeviation="6" />
      <feSpecularLighting specularExponent="25" surfaceScale="4" lighting-color="#fff" result="result1" in="result0">
        <feDistantLight azimuth="235" elevation="45" />
      </feSpecularLighting>
      <feComposite k3="1" k2="1" operator="arithmetic" in="fbSourceGraphic" in2="result1" result="result4" />
      <feComposite operator="in" result="fbSourceGraphic" in2="SourceGraphic" in="result4" />
      <feColorMatrix result="fbSourceGraphicAlpha" in="fbSourceGraphic" values="0 0 0 -1 0 0 0 0 -1 0 0 0 0 -1 0 0 0 0 1 0" />
      <feGaussianBlur stdDeviation="6" in="fbSourceGraphic" result="result0" />
      <feDiffuseLighting lighting-color="#fff" surfaceScale="4" result="result5">
        <feDistantLight elevation="45" azimuth="235" />
      </feDiffuseLighting>
      <feComposite in2="fbSourceGraphic" k1="1.4" in="result5" result="fbSourceGraphic" operator="arithmetic" />
      <feGaussianBlur result="result0" in="fbSourceGraphic" stdDeviation="6" />
      <feSpecularLighting specularExponent="25" surfaceScale="4" lighting-color="#fff" result="result1" in="result0">
        <feDistantLight azimuth="235" elevation="45" />
      </feSpecularLighting>
      <feComposite in2="result1" k3="1" k2="1" operator="arithmetic" in="fbSourceGraphic" result="result4" />
      <feComposite in2="fbSourceGraphic" operator="in" result="result2" in="result4" />
    </filter>
  </defs>
  <path class="st1" transform="matrix(-.30052 0 0 -.31055 174.946 182.64)" fill="#3c2415" filter="url(#d)" d="M422.5 388.6h14.8v27.6h-14.8z" />
  <path class="st1" d="M31.308 45.891l-3.47 1.593-1.741-1.935 1.87-.867 2.496-1.149-2.352-1.894-1.222-.988 1.365-1.814 3.535 2.862c1.416 1.15 1.143 3.427-.481 4.192zM35.466 34.323l1.222.907-1.26 1.995-3.549-2.62c-1.416-1.048-1.234-3.446.325-4.353l3.314-1.955 1.755 1.834-1.794 1.048-2.39 1.41z" />
  <path class="st1" d="M325.684 216.6c-23.9 0-45.6 9.5-61.6 24.8-5.5 5.2-10.2 11.2-14.2 17.7-8.3 13.5-13 29.4-13 46.4s4.8 32.9 13 46.4c10.1 16.5 25.4 29.4 43.6 36.5 10 3.9 20.8 6 32.2 6 11.3 0 22.2-2.1 32.2-6 12.1-4.7 22.9-12 31.7-21.2 15.4-16 24.9-37.8 24.9-61.7 0-49.1-39.8-88.9-88.8-88.9zm0 165.4c-25.8 0-48.5-13.9-61.6-34.9-7.5-12-11.8-26.3-11.8-41.6s4.3-29.7 11.8-41.6c13.1-21 35.8-34.9 61.6-34.9 40.5 0 73.3 34.2 73.3 76.5s-32.8 76.5-73.3 76.5z" transform="matrix(.12995 0 0 .20138 -10.587 -24.524)" filter="url(#e)" />
  <g>
    <path class="st1" d="M614.9 133.2V372c0 10.4-8 18.9-22.5 16.4h-186c4.7-3.9 9-8.2 12.9-12.9 2.2-2.6 4.3-5.4 6.2-8.2h172.7V141h-322v76.2c-5.1 3.6-9.8 7.7-14.2 12.1v-91.1c0-9 6.9-16.3 15.4-16.3h326.7c6 0 10.8 5.1 10.8 11.3z" transform="matrix(.12995 0 0 .20138 -12.175 -24.524)" fill="#3c2415" filter="url(#a)" />
    <path class="st1" d="M504 416.6H368.5c-9.7 0-17.6 8.4-17.6 18.7v21.3c0 .6.5 1.1 1 1.1h174.2v-17.6c0-12.9-9.9-23.5-22.1-23.5zm-140.9 23.3c0-2.8 1.1-5.3 2.8-7.1 1.7-1.8 4.1-3 6.7-3h129.6c5.2 0 9.5 4.5 9.5 10.1z" transform="matrix(.12995 0 0 .20138 -11.09 -24.064)" fill="#3c2415" filter="url(#b)" />
    <path class="st7" d="M65.576 3.87v45.573h-22.39c1.637-3.464 2.585-7.673 2.585-12.244 0-11.72-6.341-21.225-14.177-21.225-3.743 0-7.148 2.175-9.682 5.74l-.026-.041c.572-.886 1.182-1.712 1.845-2.437V3.871z" style="mix-blend-mode:exclusion" fill="#00aeef" />
    <path class="st8" d="M337.9 229c-25.8 0-48.5 13.9-61.6 34.9-7.5 12-11.8 26.3-11.8 41.6s4.3 29.7 11.8 41.6c13.1 21 35.8 34.9 61.6 34.9 40.5 0 73.3-34.2 73.3-76.5S378.4 229 337.9 229zm-3.3 120.6l-26.7 7.9-13.4-9.6 14.4-4.3 19.2-5.7-18.1-9.4-9.4-4.9 10.5-9 27.2 14.2c10.9 5.7 8.8 17-3.7 20.8zm32-57.4l9.4 4.5-9.7 9.9-27.3-13c-10.9-5.2-9.5-17.1 2.5-21.6l25.5-9.7 13.5 9.1-13.8 5.2-18.4 7z" transform="matrix(.12995 0 0 .20138 -12.175 -24.524)" fill="#fff" filter="url(#f)" />
  </g>
  <g fill="#00a14b">
    <path class="st5" d="M200.7 292.5c-3.4 1.6-6.9 1.9-10.2 1-1.2-.7-2.4-1.1-3.6-1.4-4.5-2.4-8.3-7-10.1-13.2-3.6-12 1.2-25.5 10.8-30 9.6-4.5 20.3 1.5 23.9 13.6 3.6 12-1.2 25.5-10.8 30z" style="mix-blend-mode:screen" filter="url(#i)" transform="matrix(.23863 0 0 .28217 -32.356 -61.188)" />
    <path class="st5" d="M199.3 316.4l-2.1 6.7-12.3 39.9-4.2 13.5c-.2.5-.4 1.1-.6 1.6-.2.5-.5.9-.7 1.4-1.5 2.3-3.6 3.6-5.7 3.5-.2 0-.5 0-.7-.1h-.1c-.2 0-.4-.1-.6-.2-.5-.2-.9-.4-1.4-.7l-3.9-2.6c-3.5-2.3-6.3-6.1-8.2-10.5-3.1-7.4-3.7-16.8-1.1-25.2l11.5-37.3c2.8-9.1 8.9-14.5 15.3-14.5.8 0 1.6.1 2.5.3.1.1.3.1.4.2.1.1.3.1.4.2.3.2.7.3 1 .4.2.1.5.2.7.2h.1c.3.1.6.2.9.2l.9.6c3.3 2.2 5.8 5.3 7.2 8.8 1.8 4.2 2.1 9 .7 13.6z" filter="url(#j)" transform="matrix(.23863 0 0 .28217 -32.356 -61.188)" />
    <path class="st5" d="M173.7 382.9c-.1 1.7-.4 3.3-.9 4.9L153 449.3c-2.3 7.2-7.9 10.4-12.4 7.4-4.5-3.1-6.4-11.4-4.1-18.6l22.2-69s0-.1.1-.2c1.8 4.5 4.6 8.2 8.2 10.5l3.9 2.6c.5.3.9.5 1.4.7.2.1.4.1.6.2H173.7z" filter="url(#k)" transform="matrix(.23863 0 0 .28217 -32.356 -61.188)" />
    <path class="st5" d="M206.5 380.3c0 1-.1 2.1-.4 3.1-1.4 6.4-6 10-10.4 8l-2.6-1.2-8.7-3.9c-2.4-1.1-4.3-3.7-5.2-6.9.3-.4.5-.9.7-1.4.2-.5.4-1 .6-1.6l4.2-13.5c1.5-.6 3-.6 4.6.1l11.2 5.1c3.9 1.7 6.2 6.8 6 12.2z" filter="url(#l)" transform="matrix(.23863 0 0 .28217 -32.356 -61.188)" />
    <path class="st5" d="M209.5 393.5l-2.3 36.1c-.5 8-4.3 14.1-8.6 14.1h-.6c-4.5-.6-7.8-7.9-7.3-16.2l2.3-36.1c0-.4 0-.7.1-1.1l2.6 1.2c4.4 2 9-1.6 10.4-8 .2-1 .4-2.1.4-3.1 2.2 2.9 3.4 7.8 3 13.1z" filter="url(#m)" transform="matrix(.23863 0 0 .28217 -32.356 -61.188)" />
    <path class="st5" d="M218.7 328.9c-.4 2.2-1.1 4.2-2.3 5.8-3.3 4.7-8.6 4.5-11.7-.3l-7.4-11.3 2.1-6.7c1.4-4.6 1.1-9.4-.7-13.6 3.2-2.4 7.2-1.6 9.8 2.4l8.1 12.4c.8 1.2 1.4 2.6 1.8 4.1.6 2.3.7 4.8.3 7.2z" filter="url(#n)" transform="matrix(.23863 0 0 .28217 -32.356 -61.188)" />
    <path class="st5" d="M249.2 299.2c0 .1 0 .2-.1.4 0 .1 0 .3-.1.4 0 .1-.1.2-.1.4-.1.2-.1.3-.2.5l-15.3 27.7-3.3 6c-1.1 1.9-3.6 1.9-5.6 0l-4.9-4.6c-.3-.3-.6-.6-.9-1 .4-2.4.3-4.9-.3-7.2l12.8-23.2 5.1-9.3c.1-.2.3-.4.5-.6.1-.1.2-.2.3-.2.1-.1.2-.2.3-.2.1-.1.2-.1.3-.2.1 0 .2-.1.3-.1.5-.1 1.1-.1 1.6 0 .1 0 .2 0 .3.1.7.2 1.4.6 2 1.2l4.9 4.6c.5.5 1 1.1 1.4 1.7.2.4.4.9.6 1.3.3.7.4 1.6.4 2.3z" transform="matrix(.24834 .01119 -.01212 .26895 -30.531 -59.086)" filter="url(#o)" />
  </g>
</svg>

